<svg width="100%" height="100%" fill="none" xmlns="http://www.w3.org/2000/svg">
<path d="M0 664C108.37 679.166 254.377 718.497 355.359 833.564C437.672 927.354 446.571 1021.91 514.157 1032.49C608.893 1047.33 656.204 871.692 786.244 844.931C859.368 829.879 976.511 858.24 1160 1078.91C773.337 1078.6 386.663 1079.22 0 1078.91C0 940.607 0 802.303 0 664Z" fill="#0C0B13"/>
<path d="M1920 0C1920 83.2793 1920 166.55 1920 249.829C1897.34 256.358 1863.6 263.026 1824.01 258.534C1743.56 249.403 1706.85 201.874 1656.25 171.486C1499.81 77.5341 1343.94 227.562 1219.56 135.796C1193.77 116.776 1158.85 79.6233 1140 0C1243.62 0 1347.25 0 1450.88 0C1607.25 0 1763.63 0 1920 0Z" fill="#0C0B13"/>
</svg>
