<svg width="60" height="64" viewBox="0 0 60 64" fill="none" xmlns="http://www.w3.org/2000/svg">

<path d="M0 29.2926V0H30.7788C30.7788 16.1784 16.9992 29.2926 0 29.2926Z" fill="#0C0B13"/>
<path d="M30.7788 63.9999H0V34.7073C16.9992 34.7073 30.7788 47.8215 30.7788 63.9999Z" fill="#0C0B13"/>
<path d="M29.2212 31.9059C29.2212 15.7506 42.9653 2.64701 59.9347 2.61328V20.3415C53.2529 20.3753 47.8489 25.5414 47.8489 31.9059C47.8489 38.2722 53.2529 43.4366 59.9347 43.4703V61.1986C42.9653 61.1648 29.2212 48.063 29.2212 31.9059Z" fill="#0C0B13"/>
<path d="M52.3519 31.906C52.3519 27.908 55.7395 24.6609 59.9347 24.6272V39.1848C55.7395 39.151 52.3519 35.9058 52.3519 31.906Z" fill="#0C0B13"/>
<defs>
<clipPath id="clip0_263_160">
<rect width="60" height="64" fill="white"/>
</clipPath>
</defs>
</svg>
