<svg width="459" height="515" viewBox="0 0 459 515" fill="none" xmlns="http://www.w3.org/2000/svg">
<g clip-path="url(#clip0_263_151)">
<path d="M0 235.485V0H235.278C235.278 130.059 129.945 235.485 0 235.485Z" fill="#0C0B13"/>
<path d="M235.278 514.5H0V279.015C129.945 279.015 235.278 384.441 235.278 514.5Z" fill="#0C0B13"/>
<path d="M223.372 256.493C223.372 126.62 328.434 21.2792 458.151 21.0081V163.527C407.074 163.798 365.765 205.329 365.765 256.493C365.765 307.672 407.074 349.189 458.151 349.46V491.979C328.434 491.708 223.372 386.382 223.372 256.493Z" fill="#0C0B13"/>
<path d="M400.187 256.494C400.187 224.353 426.082 198.25 458.151 197.979V315.008C426.082 314.737 400.187 288.648 400.187 256.494Z" fill="#0C0B13"/>
</g>
<defs>
<clipPath id="clip0_263_151">
<rect width="458.65" height="514.5" fill="white"/>
</clipPath>
</defs>
</svg>
