<svg width="100%" height="100%" fill="none" xmlns="http://www.w3.org/2000/svg">
<path d="M0 0C50.02 15.03 117.61 43.72 135 100C153.34 159.34 99.81 197.34 117 252C142.48 333.05 277.47 304.46 329 385C395.89 489.54 227.22 629.56 285 738C348.88 857.88 609.67 789.3 658 901C683.03 958.86 637.41 1033.56 603 1080C403.33 1080 199.67 1080 0 1080C0 718.67 0 361.33 0 0Z" fill="#0C0B13"/>
<path d="M1920 0C1920 95.67 1920 191.33 1920 287C1893.79 294.5 1854.78 302.16 1809 297C1715.96 286.51 1673.51 231.91 1615 197C1434.09 89.07 1253.84 261.42 1110 156C1080.18 134.15 1039.8 91.47 1018 0C1137.83 0 1257.67 0 1377.5 0C1558.33 0 1739.17 0 1920 0Z" fill="#0C0B13"/>
</svg>
